<svg width="15" height="10" viewBox="0 0 15 10" fill="none" xmlns="http://www.w3.org/2000/svg">
<path d="M7.30655 0.00302823C7.69337 -0.00333656 8.07176 0.116358 8.38455 0.344029C8.55714 0.469973 8.70212 0.629924 8.81055 0.814028L14.2385 6.91503C14.3766 7.06696 14.4806 7.24668 14.5434 7.44211C14.6063 7.63753 14.6266 7.84415 14.603 8.04808C14.5794 8.25201 14.5125 8.44853 14.4067 8.62445C14.3009 8.80037 14.1586 8.95162 13.9895 9.06803C13.635 9.32386 13.1995 9.44192 12.7643 9.40015C12.3291 9.35837 11.9239 9.15963 11.6245 8.84103L7.30655 3.98803L2.98855 8.84103C2.6891 9.15989 2.28378 9.3588 1.84834 9.40058C1.41291 9.44236 0.977163 9.32414 0.622547 9.06803C0.453589 8.95151 0.31149 8.80022 0.205774 8.6243C0.100059 8.44838 0.0331698 8.2519 0.00959027 8.04802C-0.0139893 7.84414 0.00628582 7.63757 0.0690567 7.44217C0.131828 7.24676 0.235645 7.06703 0.373548 6.91503L5.80355 0.809028C5.91195 0.625775 6.05656 0.466535 6.22855 0.341028C6.53546 0.117474 6.90585 -0.00201865 7.28555 2.79697e-05L7.30655 0.00302823Z" fill="white"/>
</svg>
