<svg width="15" height="10" viewBox="0 0 15 10" fill="none" xmlns="http://www.w3.org/2000/svg">
<path d="M7.306 9.40578C6.91918 9.41215 6.54079 9.29245 6.228 9.06478C6.05541 8.93884 5.91043 8.77889 5.802 8.59478L0.374002 2.49378C0.235944 2.34185 0.131993 2.16214 0.0691291 1.96671C0.00626507 1.77128 -0.0140567 1.56466 0.00952835 1.36073C0.0331134 1.1568 0.100059 0.96028 0.205871 0.78436C0.311682 0.60844 0.453909 0.457196 0.623002 0.340785C0.977538 0.0849491 1.41307 -0.0331039 1.84827 0.00866831C2.28348 0.0504406 2.6886 0.249182 2.988 0.567785L7.306 5.42078L11.624 0.567785C11.9235 0.248918 12.3288 0.0500078 12.7642 0.00823122C13.1996 -0.0335453 13.6354 0.0846708 13.99 0.340785C14.159 0.457302 14.3011 0.60859 14.4068 0.784509C14.5125 0.960428 14.5794 1.15691 14.603 1.36079C14.6265 1.56467 14.6063 1.77124 14.5435 1.96664C14.4807 2.16205 14.3769 2.34178 14.239 2.49378L8.809 8.59978C8.7006 8.78304 8.55599 8.94228 8.384 9.06778C8.07709 9.29134 7.7067 9.41083 7.327 9.40878L7.306 9.40578Z" fill="white"/>
</svg>
