<svg width="13" height="12" viewBox="0 0 13 12" fill="none" xmlns="http://www.w3.org/2000/svg">
<path d="M1.50718 3.64026L3.0777 2.11905C3.20039 2.00027 3.39939 2.00031 3.52199 2.11905L5.09246 3.64026C5.29019 3.83174 5.14938 4.15963 4.8703 4.15963H3.92819V10.2443C3.92819 10.4123 3.78754 10.5485 3.61403 10.5485H2.98569C2.81217 10.5485 2.67152 10.4123 2.67152 10.2443V4.15963H1.72934C1.44971 4.15963 1.30986 3.83136 1.50718 3.64026ZM6.12737 3.24693H11.154C11.3276 3.24693 11.4682 3.11072 11.4682 2.94269V2.33422C11.4682 2.16619 11.3276 2.02999 11.154 2.02999H6.12737C5.95385 2.02999 5.8132 2.16619 5.8132 2.33422V2.94269C5.8132 3.11072 5.95385 3.24693 6.12737 3.24693ZM5.8132 5.37657V4.7681C5.8132 4.60006 5.95385 4.46386 6.12737 4.46386H9.89737C10.0709 4.46386 10.2115 4.60006 10.2115 4.7681V5.37657C10.2115 5.5446 10.0709 5.6808 9.89737 5.6808H6.12737C5.95385 5.6808 5.8132 5.5446 5.8132 5.37657ZM5.8132 10.2443V9.63584C5.8132 9.46781 5.95385 9.33161 6.12737 9.33161H7.38403C7.55755 9.33161 7.6982 9.46781 7.6982 9.63584V10.2443C7.6982 10.4123 7.55755 10.5485 7.38403 10.5485H6.12737C5.95385 10.5485 5.8132 10.4123 5.8132 10.2443ZM5.8132 7.81044V7.20197C5.8132 7.03394 5.95385 6.89774 6.12737 6.89774H8.6407C8.81422 6.89774 8.95487 7.03394 8.95487 7.20197V7.81044C8.95487 7.97847 8.81422 8.11467 8.6407 8.11467H6.12737C5.95385 8.11467 5.8132 7.97847 5.8132 7.81044Z" fill="#C5C7CD"/>
</svg>
